<svg width="300" height="301" viewBox="0 0 300 301" fill="none" xmlns="http://www.w3.org/2000/svg">
<g id="Group 42">
<g id="Ellipse 4" filter="url(#filter0_d_104_2039)">
<circle cx="149.844" cy="132.844" r="24.8441" fill="white"/>
<circle cx="149.844" cy="132.844" r="24.3441" stroke="#30387D" stroke-opacity="0.32"/>
</g>
<path id="Union" fill-rule="evenodd" clip-rule="evenodd" d="M141.137 124.137C141.325 123.95 141.579 123.844 141.844 123.844H150.844C151.109 123.844 151.364 123.95 151.551 124.137C151.739 124.325 151.844 124.579 151.844 124.844V125.844C151.844 126.397 152.292 126.844 152.844 126.844C153.396 126.844 153.844 126.397 153.844 125.844V124.844C153.844 124.049 153.528 123.286 152.965 122.723C152.403 122.16 151.64 121.844 150.844 121.844H141.844C141.048 121.844 140.285 122.16 139.723 122.723C139.16 123.286 138.844 124.049 138.844 124.844V133.844C138.844 134.64 139.16 135.403 139.723 135.966C140.285 136.528 141.048 136.844 141.844 136.844H142.844C143.396 136.844 143.844 136.397 143.844 135.844C143.844 135.292 143.396 134.844 142.844 134.844H141.844C141.579 134.844 141.325 134.739 141.137 134.551C140.949 134.364 140.844 134.109 140.844 133.844V124.844C140.844 124.579 140.949 124.325 141.137 124.137ZM147.844 131.844C147.844 131.292 148.292 130.844 148.844 130.844H157.844C158.396 130.844 158.844 131.292 158.844 131.844V140.844C158.844 141.397 158.396 141.844 157.844 141.844H148.844C148.292 141.844 147.844 141.397 147.844 140.844V131.844ZM148.844 128.844C147.187 128.844 145.844 130.187 145.844 131.844V140.844C145.844 142.501 147.187 143.844 148.844 143.844H157.844C159.501 143.844 160.844 142.501 160.844 140.844V131.844C160.844 130.187 159.501 128.844 157.844 128.844H148.844Z" fill="#30387D" fill-opacity="0.69"/>
</g>
<defs>
<filter id="filter0_d_104_2039" x="0" y="0.739536" width="299.688" height="299.688" filterUnits="userSpaceOnUse" color-interpolation-filters="sRGB">
<feFlood flood-opacity="0" result="BackgroundImageFix"/>
<feColorMatrix in="SourceAlpha" type="matrix" values="0 0 0 0 0 0 0 0 0 0 0 0 0 0 0 0 0 0 127 0" result="hardAlpha"/>
<feOffset dy="17.7395"/>
<feGaussianBlur stdDeviation="62.5"/>
<feComposite in2="hardAlpha" operator="out"/>
<feColorMatrix type="matrix" values="0 0 0 0 0.188472 0 0 0 0 0.218792 0 0 0 0 0.491667 0 0 0 0.32 0"/>
<feBlend mode="normal" in2="BackgroundImageFix" result="effect1_dropShadow_104_2039"/>
<feBlend mode="normal" in="SourceGraphic" in2="effect1_dropShadow_104_2039" result="shape"/>
</filter>
</defs>
</svg>
