<svg width="300" height="301" viewBox="0 0 300 301" fill="none" xmlns="http://www.w3.org/2000/svg">
<g id="Group 1000002446">
<g id="Group 33">
<g id="Ellipse 6" filter="url(#filter0_d_104_2070)">
<circle cx="149.844" cy="132.844" r="24.8441" fill="white"/>
<circle cx="149.844" cy="132.844" r="24.3441" stroke="#30387D" stroke-opacity="0.32"/>
</g>
</g>
<path id="Union" fill-rule="evenodd" clip-rule="evenodd" d="M147.137 124.137C147.325 123.95 147.579 123.844 147.844 123.844H151.844C152.109 123.844 152.364 123.95 152.551 124.137C152.739 124.325 152.844 124.579 152.844 124.844V125.844H146.844V124.844C146.844 124.579 146.949 124.325 147.137 124.137ZM144.844 125.844V124.844C144.844 124.049 145.16 123.286 145.723 122.723C146.285 122.16 147.048 121.844 147.844 121.844H151.844C152.64 121.844 153.403 122.16 153.965 122.723C154.528 123.286 154.844 124.049 154.844 124.844V125.844H156.844H158.844C159.396 125.844 159.844 126.292 159.844 126.844C159.844 127.397 159.396 127.844 158.844 127.844H157.844V140.844C157.844 141.64 157.528 142.403 156.965 142.966C156.403 143.528 155.64 143.844 154.844 143.844H144.844C144.048 143.844 143.285 143.528 142.723 142.966C142.16 142.403 141.844 141.64 141.844 140.844V127.844H140.844C140.292 127.844 139.844 127.397 139.844 126.844C139.844 126.292 140.292 125.844 140.844 125.844H142.844H144.844ZM143.844 127.844V140.844C143.844 141.109 143.949 141.364 144.137 141.551C144.325 141.739 144.579 141.844 144.844 141.844H154.844C155.109 141.844 155.364 141.739 155.551 141.551C155.739 141.364 155.844 141.109 155.844 140.844V127.844H153.844H145.844H143.844ZM147.844 130.844C148.396 130.844 148.844 131.292 148.844 131.844V137.844C148.844 138.397 148.396 138.844 147.844 138.844C147.292 138.844 146.844 138.397 146.844 137.844V131.844C146.844 131.292 147.292 130.844 147.844 130.844ZM152.844 137.844V131.844C152.844 131.292 152.396 130.844 151.844 130.844C151.292 130.844 150.844 131.292 150.844 131.844V137.844C150.844 138.397 151.292 138.844 151.844 138.844C152.396 138.844 152.844 138.397 152.844 137.844Z" fill="#FF7777"/>
</g>
<defs>
<filter id="filter0_d_104_2070" x="0" y="0.739536" width="299.688" height="299.688" filterUnits="userSpaceOnUse" color-interpolation-filters="sRGB">
<feFlood flood-opacity="0" result="BackgroundImageFix"/>
<feColorMatrix in="SourceAlpha" type="matrix" values="0 0 0 0 0 0 0 0 0 0 0 0 0 0 0 0 0 0 127 0" result="hardAlpha"/>
<feOffset dy="17.7395"/>
<feGaussianBlur stdDeviation="62.5"/>
<feComposite in2="hardAlpha" operator="out"/>
<feColorMatrix type="matrix" values="0 0 0 0 0.188472 0 0 0 0 0.218792 0 0 0 0 0.491667 0 0 0 0.32 0"/>
<feBlend mode="normal" in2="BackgroundImageFix" result="effect1_dropShadow_104_2070"/>
<feBlend mode="normal" in="SourceGraphic" in2="effect1_dropShadow_104_2070" result="shape"/>
</filter>
</defs>
</svg>
