<svg width="37" height="38" viewBox="0 0 37 38" fill="none" xmlns="http://www.w3.org/2000/svg">
<g id="Emoji">
<path id="Vector" d="M18.2955 37.4308C28.3983 37.4308 36.5882 29.2409 36.5882 19.1381C36.5882 9.03536 28.3983 0.845459 18.2955 0.845459C8.19277 0.845459 0.00286865 9.03536 0.00286865 19.1381C0.00286865 29.2409 8.19277 37.4308 18.2955 37.4308Z" fill="#FFCC4D"/>
<path id="Vector_2" d="M18.2953 22.187C14.6134 22.187 12.1703 21.7581 9.14897 21.1707C8.45893 21.0376 7.11646 21.1707 7.11646 23.2032C7.11646 27.2683 11.7862 32.3496 18.2953 32.3496C24.8034 32.3496 29.4741 27.2683 29.4741 23.2032C29.4741 21.1707 28.1317 21.0366 27.4416 21.1707C24.4203 21.7581 21.9772 22.187 18.2953 22.187Z" fill="#664500"/>
<path id="Vector_3" d="M9.14905 23.2032C9.14905 23.2032 12.1978 24.2195 18.2954 24.2195C24.3929 24.2195 27.4417 23.2032 27.4417 23.2032C27.4417 23.2032 25.4092 27.2683 18.2954 27.2683C11.1816 27.2683 9.14905 23.2032 9.14905 23.2032Z" fill="white"/>
<path id="Vector_4" d="M12.1974 18.1219C13.6006 18.1219 14.7381 16.5294 14.7381 14.565C14.7381 12.6005 13.6006 11.0081 12.1974 11.0081C10.7943 11.0081 9.6568 12.6005 9.6568 14.565C9.6568 16.5294 10.7943 18.1219 12.1974 18.1219Z" fill="#664500"/>
<path id="Vector_5" d="M24.3926 18.1219C25.7957 18.1219 26.9332 16.5294 26.9332 14.565C26.9332 12.6005 25.7957 11.0081 24.3926 11.0081C22.9894 11.0081 21.8519 12.6005 21.8519 14.565C21.8519 16.5294 22.9894 18.1219 24.3926 18.1219Z" fill="#664500"/>
</g>
</svg>
