<svg width="28" height="28" viewBox="0 0 28 28" fill="none" xmlns="http://www.w3.org/2000/svg">
<g id="linkedin 1" clip-path="url(#clip0_104_2016)">
<g id="Icons">
<g id="Social-Media-Collection">
<g id="Linkedin">
<path id="Fill-209" fill-rule="evenodd" clip-rule="evenodd" d="M21 20.9869H18.0994V16.4474C18.0994 15.365 18.0801 13.9729 16.5917 13.9729C15.0824 13.9729 14.8523 15.1524 14.8523 16.3704V20.9869H11.9542V11.6524H14.735V12.929H14.7752C15.162 12.1949 16.1088 11.4205 17.5201 11.4205C20.4575 11.4205 21 13.3534 21 15.8673V20.9869ZM8.6835 10.3775C7.75162 10.3775 7 9.62325 7 8.69488C7 7.7665 7.75162 7.01225 8.6835 7.01225C9.611 7.01225 10.3644 7.7665 10.3644 8.69488C10.3644 9.62325 9.611 10.3775 8.6835 10.3775ZM10.1342 20.9869H7.23012V11.6524H10.1342V20.9869ZM14 0C6.26762 0 0 6.26762 0 14C0 21.7315 6.26762 28 14 28C21.7324 28 28 21.7315 28 14C28 6.26762 21.7324 0 14 0Z" fill="#2E78B6"/>
</g>
</g>
</g>
</g>
<defs>
<clipPath id="clip0_104_2016">
<rect width="28" height="28" fill="white"/>
</clipPath>
</defs>
</svg>
