<svg width="251" height="301" viewBox="0 0 251 301" fill="none" xmlns="http://www.w3.org/2000/svg">
<g id="Group 46">
<g id="Group 45">
<g id="Ellipse 4" filter="url(#filter0_d_104_2045)">
<circle cx="100.844" cy="132.844" r="24.8441" fill="white"/>
<circle cx="100.844" cy="132.844" r="24.3441" stroke="#30387D" stroke-opacity="0.32"/>
</g>
</g>
<path id="Union" fill-rule="evenodd" clip-rule="evenodd" d="M106.844 123.844C105.74 123.844 104.844 124.74 104.844 125.844C104.844 126.192 104.933 126.518 105.088 126.803C105.099 126.818 105.108 126.834 105.118 126.85C105.127 126.866 105.136 126.882 105.144 126.899C105.497 127.466 106.127 127.844 106.844 127.844C107.949 127.844 108.844 126.949 108.844 125.844C108.844 124.74 107.949 123.844 106.844 123.844ZM104.002 128.659C104.727 129.391 105.733 129.844 106.844 129.844C109.053 129.844 110.844 128.053 110.844 125.844C110.844 123.635 109.053 121.844 106.844 121.844C104.635 121.844 102.844 123.635 102.844 125.844C102.844 126.221 102.896 126.586 102.994 126.932L97.6861 130.029C96.9612 129.298 95.9556 128.844 94.8441 128.844C92.635 128.844 90.8441 130.635 90.8441 132.844C90.8441 135.053 92.635 136.844 94.8441 136.844C95.9558 136.844 96.9615 136.391 97.6865 135.659L102.995 138.752C102.897 139.099 102.844 139.466 102.844 139.844C102.844 142.053 104.635 143.844 106.844 143.844C109.053 143.844 110.844 142.053 110.844 139.844C110.844 137.635 109.053 135.844 106.844 135.844C105.734 135.844 104.73 136.296 104.005 137.026L98.6946 133.931C98.792 133.586 98.8441 133.221 98.8441 132.844C98.8441 132.467 98.792 132.102 98.6945 131.757L104.002 128.659ZM96.5438 131.79C96.5522 131.806 96.5611 131.822 96.5704 131.838C96.5799 131.854 96.5897 131.87 96.5999 131.886C96.7556 132.17 96.8441 132.497 96.8441 132.844C96.8441 133.192 96.7556 133.518 96.5999 133.803C96.5896 133.818 96.5796 133.834 96.5701 133.851C96.5609 133.867 96.5521 133.883 96.5438 133.899C96.1909 134.466 95.5616 134.844 94.8441 134.844C93.7395 134.844 92.8441 133.949 92.8441 132.844C92.8441 131.74 93.7395 130.844 94.8441 130.844C95.5616 130.844 96.1909 131.222 96.5438 131.79ZM104.844 139.844C104.844 139.519 104.922 139.212 105.059 138.941C105.084 138.908 105.107 138.874 105.128 138.838C105.148 138.803 105.166 138.768 105.182 138.732C105.541 138.197 106.151 137.844 106.844 137.844C107.949 137.844 108.844 138.74 108.844 139.844C108.844 140.949 107.949 141.844 106.844 141.844C105.74 141.844 104.844 140.949 104.844 139.844Z" fill="#30387D" fill-opacity="0.69"/>
</g>
<defs>
<filter id="filter0_d_104_2045" x="-49" y="0.739536" width="299.688" height="299.688" filterUnits="userSpaceOnUse" color-interpolation-filters="sRGB">
<feFlood flood-opacity="0" result="BackgroundImageFix"/>
<feColorMatrix in="SourceAlpha" type="matrix" values="0 0 0 0 0 0 0 0 0 0 0 0 0 0 0 0 0 0 127 0" result="hardAlpha"/>
<feOffset dy="17.7395"/>
<feGaussianBlur stdDeviation="62.5"/>
<feComposite in2="hardAlpha" operator="out"/>
<feColorMatrix type="matrix" values="0 0 0 0 0.188472 0 0 0 0 0.218792 0 0 0 0 0.491667 0 0 0 0.32 0"/>
<feBlend mode="normal" in2="BackgroundImageFix" result="effect1_dropShadow_104_2045"/>
<feBlend mode="normal" in="SourceGraphic" in2="effect1_dropShadow_104_2045" result="shape"/>
</filter>
</defs>
</svg>
